<svg width="100%" style="height:100px" viewBox="0 0 138 72" fill="none"
    xmlns="http://www.w3.org/2000/svg">
    <g clip-path="url(#clip0_136_750)">
        <path
            d="M0.577623 66.8905C0.624589 68.3955 1.53103 69.2825 2.61594 69.2825C3.40028 69.2825 4.11416 68.8107 4.38656 67.9048L4.95015 68.0794C4.61669 69.1315 3.69616 69.8014 2.61594 69.8014C1.20227 69.8014 0.00463867 68.6691 0.00463867 66.7725C0.00463867 64.8759 1.20227 63.7437 2.61594 63.7437C4.02962 63.7437 5.14741 64.8759 5.10044 66.8905H0.577623V66.8905ZM0.601106 66.3715H4.52276C4.37247 65.0552 3.63511 64.2673 2.61125 64.2673C1.58739 64.2673 0.737307 65.0411 0.596409 66.3715H0.601106Z"
            fill="#4F4F4F" />
        <path
            d="M7.23735 63.8616V67.3859C7.23735 68.7493 7.90426 69.2825 8.72147 69.2825C9.40248 69.2825 10.1821 68.9003 10.8068 68.3106V63.8616H11.3844V69.6882H10.8068V68.9003C10.2667 69.3862 9.55277 69.8014 8.72147 69.8014C7.5802 69.8014 6.65967 69.1173 6.65967 67.3859V63.8616H7.23735Z"
            fill="#4F4F4F" />
        <path
            d="M13.3384 63.8616H13.9161V65.3524C14.32 64.8429 15.1701 64.0455 16.1375 63.6304L16.2738 64.2673C15.3063 64.6259 14.4562 65.3194 13.9161 65.9893V69.6882H13.3384V63.8616Z"
            fill="#4F4F4F" />
        <path
            d="M19.4016 63.7483C20.8153 63.7483 22.0129 64.8806 22.0129 66.7772C22.0129 68.6738 20.8153 69.8061 19.4016 69.8061C17.9879 69.8061 16.7903 68.6738 16.7903 66.7772C16.7903 64.8806 17.9879 63.7483 19.4016 63.7483ZM19.4016 69.2871C20.5053 69.2871 21.4399 68.353 21.4399 66.7772C21.4399 65.2014 20.51 64.2673 19.4016 64.2673C18.2932 64.2673 17.3633 65.2014 17.3633 66.7772C17.3633 68.353 18.2932 69.2871 19.4016 69.2871Z"
            fill="#4F4F4F" />
        <path
            d="M23.6238 63.8615H24.2015V64.6494C24.7416 64.1635 25.3991 63.7483 26.2867 63.7483C27.5407 63.7483 28.682 64.7532 28.682 66.7772C28.682 68.8012 27.3106 69.8061 26.174 69.8061C25.3474 69.8061 24.7463 69.5183 24.2062 69.089V72.0046H23.6285V63.8662L23.6238 63.8615ZM26.0754 69.2824C27.0993 69.2824 28.0996 68.4709 28.0996 66.7725C28.0996 65.074 27.212 64.2625 26.2821 64.2625C25.5447 64.2625 24.8214 64.6447 24.1968 65.2344V68.4379C24.8167 68.971 25.3944 69.2824 26.0707 69.2824H26.0754Z"
            fill="#4F4F4F" />
        <path
            d="M30.5137 66.8905C30.5606 68.3955 31.4671 69.2825 32.552 69.2825C33.3363 69.2825 34.0502 68.8107 34.3226 67.9048L34.8862 68.0794C34.5527 69.1315 33.6322 69.8014 32.552 69.8014C31.1383 69.8014 29.9407 68.6691 29.9407 66.7725C29.9407 64.8759 31.1383 63.7437 32.552 63.7437C33.9657 63.7437 35.0834 64.8759 35.0365 66.8905H30.5137V66.8905ZM30.5371 66.3715H34.4635C34.3132 65.0552 33.5758 64.2673 32.552 64.2673C31.5281 64.2673 30.678 65.0411 30.5371 66.3715Z"
            fill="#4F4F4F" />
        <path
            d="M38.9863 66.4046H40.3436V65.8478C40.3436 64.7863 39.6861 64.2626 38.7656 64.2626C38.0987 64.2626 37.3519 64.6684 37.0983 65.5365L36.5676 65.3289C36.9151 64.2438 37.892 63.7437 38.7656 63.7437C40.0196 63.7437 40.9166 64.4466 40.9166 65.8478V68.0558C40.9166 68.6125 41.0669 69.1409 41.344 69.6269L40.7663 69.7448C40.5832 69.4335 40.4423 69.0183 40.4 68.6597C39.766 69.4334 38.8689 69.8062 38.1081 69.8062C37.1406 69.8062 36.314 69.2636 36.314 68.2351C36.314 67.0651 37.211 66.4093 38.9863 66.4093V66.4046ZM38.0987 69.2825C38.9253 69.2825 39.9163 68.7258 40.3436 67.952V66.9235H38.9863C37.6055 66.9235 36.8916 67.3953 36.8916 68.2304C36.8916 68.9145 37.4552 69.2825 38.0987 69.2825Z"
            fill="#4F4F4F" />
        <path
            d="M42.8142 63.8615H43.3919V64.6494C43.932 64.1635 44.6459 63.7483 45.4772 63.7483C46.6184 63.7483 47.539 64.4324 47.539 66.1639V69.6881H46.9613V66.1639C46.9613 64.8004 46.2944 64.2673 45.4772 64.2673C44.7962 64.2673 44.0165 64.6494 43.3919 65.2392V69.6881H42.8142V63.8615Z"
            fill="#4F4F4F" />
        <path d="M48.7976 66.4988H51.3526V67.0178H48.7976V66.4988Z" fill="#4F4F4F" />
        <path
            d="M52.6769 63.8615H53.2546V64.6494C53.7148 64.1635 54.3348 63.7483 55.0487 63.7483C55.6921 63.7483 56.2932 64.0031 56.6032 64.7296C57.0635 64.2437 57.9042 63.7483 58.6181 63.7483C59.595 63.7483 60.3887 64.3144 60.3887 66.0506V69.6929H59.811V66.0506C59.811 64.6872 59.2474 64.272 58.5664 64.272C57.9887 64.272 57.2654 64.6541 56.7488 65.2439C56.7958 65.5081 56.8193 65.7062 56.8193 66.0553V69.6976H56.2416V66.0553C56.2416 64.6919 55.678 64.2767 54.997 64.2767C54.4193 64.2767 53.7665 64.6589 53.2452 65.2486V69.6976H52.6675V63.871L52.6769 63.8615Z"
            fill="#4F4F4F" />
        <path
            d="M64.5547 63.7483C65.9683 63.7483 67.166 64.8806 67.166 66.7772C67.166 68.6738 65.9683 69.8061 64.5547 69.8061C63.141 69.8061 61.9434 68.6738 61.9434 66.7772C61.9434 64.8806 63.141 63.7483 64.5547 63.7483ZM64.5547 69.2871C65.6584 69.2871 66.593 68.353 66.593 66.7772C66.593 65.2014 65.6631 64.2673 64.5547 64.2673C63.4463 64.2673 62.5163 65.2014 62.5163 66.7772C62.5163 68.353 63.4463 69.2871 64.5547 69.2871Z"
            fill="#4F4F4F" />
        <path
            d="M69.2935 63.8616V67.3859C69.2935 68.7493 69.9604 69.2825 70.7776 69.2825C71.4586 69.2825 72.2383 68.9003 72.8629 68.3106V63.8616H73.4406V69.6882H72.8629V68.9003C72.3228 69.3862 71.6089 69.8014 70.7776 69.8014C69.6364 69.8014 68.7158 69.1173 68.7158 67.3859V63.8616H69.2935Z"
            fill="#4F4F4F" />
        <path
            d="M75.3896 63.8615H75.9673V64.6494C76.5074 64.1635 77.2213 63.7483 78.0526 63.7483C79.1939 63.7483 80.1144 64.4324 80.1144 66.1639V69.6881H79.5414V66.1639C79.5414 64.8004 78.8745 64.2673 78.0573 64.2673C77.3763 64.2673 76.5967 64.6494 75.972 65.2392V69.6881H75.3943V63.8615H75.3896Z"
            fill="#4F4F4F" />
        <path
            d="M81.3167 63.8616H82.5847V62.1726L83.1577 62.0547V63.8569H85.1162V64.3759H83.1577V67.8672C83.1577 68.8957 83.4583 69.2778 84.0313 69.2778C84.3882 69.2778 84.6982 69.1976 85.2289 69.023L85.3463 69.509C84.7921 69.7166 84.3553 69.7968 83.989 69.7968C82.9745 69.7968 82.5847 69.0797 82.5847 67.8672V64.3759H81.3167V63.8569V63.8616Z"
            fill="#4F4F4F" />
        <path
            d="M89.052 66.4046H90.4093V65.8478C90.4093 64.7863 89.7518 64.2626 88.8313 64.2626C88.1643 64.2626 87.4176 64.6684 87.164 65.5365L86.6333 65.3289C86.9808 64.2438 87.9577 63.7437 88.8313 63.7437C90.0853 63.7437 90.9823 64.4466 90.9823 65.8478V68.0558C90.9823 68.6125 91.1326 69.1409 91.4097 69.6269L90.832 69.7448C90.6488 69.4335 90.5079 69.0183 90.4657 68.6597C89.8316 69.4334 88.9346 69.8062 88.1737 69.8062C87.2062 69.8062 86.3796 69.2636 86.3796 68.2351C86.3796 67.0651 87.2767 66.4093 89.052 66.4093V66.4046ZM88.1643 69.2825C88.9909 69.2825 89.9819 68.7258 90.4093 67.952V66.9235H89.052C87.6712 66.9235 86.9573 67.3953 86.9573 68.2304C86.9573 68.9145 87.5209 69.2825 88.1643 69.2825Z"
            fill="#4F4F4F" />
        <path
            d="M93.171 61.479C93.4246 61.479 93.6312 61.6866 93.6312 61.9414C93.6312 62.1961 93.4246 62.4037 93.171 62.4037C92.9173 62.4037 92.7107 62.1961 92.7107 61.9414C92.7107 61.6866 92.9173 61.479 93.171 61.479ZM92.8845 63.8615H93.4622V69.6882H92.8845V63.8615Z"
            fill="#4F4F4F" />
        <path
            d="M95.4111 63.8615H95.9888V64.6494C96.5289 64.1635 97.2428 63.7483 98.0741 63.7483C99.2154 63.7483 100.136 64.4324 100.136 66.1639V69.6881H99.5629V66.1639C99.5629 64.8004 98.896 64.2673 98.0788 64.2673C97.3978 64.2673 96.6182 64.6494 95.9935 65.2392V69.6881H95.4158V63.8615H95.4111Z"
            fill="#4F4F4F" />
        <path
            d="M102.259 66.8905C102.306 68.3955 103.212 69.2825 104.297 69.2825C105.081 69.2825 105.795 68.8107 106.068 67.9048L106.631 68.0794C106.298 69.1315 105.377 69.8014 104.297 69.8014C102.883 69.8014 101.686 68.6691 101.686 66.7725C101.686 64.8759 102.883 63.7437 104.297 63.7437C105.711 63.7437 106.829 64.8759 106.782 66.8905H102.259V66.8905ZM102.282 66.3715H106.209C106.058 65.0552 105.321 64.2673 104.297 64.2673C103.273 64.2673 102.423 65.0411 102.282 66.3715Z"
            fill="#4F4F4F" />
        <path
            d="M108.632 66.8905C108.679 68.3955 109.585 69.2825 110.67 69.2825C111.455 69.2825 112.169 68.8107 112.441 67.9048L113.005 68.0794C112.671 69.1315 111.751 69.8014 110.67 69.8014C109.257 69.8014 108.059 68.6691 108.059 66.7725C108.059 64.8759 109.257 63.7437 110.67 63.7437C112.084 63.7437 113.202 64.8759 113.155 66.8905H108.632V66.8905ZM108.656 66.3715H112.582C112.432 65.0552 111.694 64.2673 110.67 64.2673C109.647 64.2673 108.796 65.0411 108.656 66.3715V66.3715Z"
            fill="#4F4F4F" />
        <path
            d="M114.78 63.8616H115.358V65.3524C115.762 64.8429 116.612 64.0455 117.579 63.6304L117.715 64.2673C116.748 64.6259 115.898 65.3194 115.358 65.9893V69.6882H114.78V63.8616V63.8616Z"
            fill="#4F4F4F" />
        <path
            d="M119.073 68.0133C119.289 68.8672 119.876 69.2871 120.947 69.2871C121.82 69.2871 122.525 68.7776 122.525 68.1076C122.525 66.2582 118.636 67.8434 118.636 65.3665C118.636 64.4749 119.486 63.7483 120.731 63.7483C121.881 63.7483 122.778 64.2814 122.985 65.3429L122.431 65.5411C122.281 64.6258 121.52 64.2673 120.726 64.2673C119.838 64.2673 119.209 64.7626 119.209 65.3665C119.209 67.1593 123.098 65.7109 123.098 68.1076C123.098 69.0795 122.154 69.8061 120.947 69.8061C119.542 69.8061 118.796 69.2258 118.519 68.2114L119.073 68.0133V68.0133Z"
            fill="#4F4F4F" />
        <path
            d="M125.033 68.7539C125.31 68.7539 125.526 68.9756 125.526 69.2493C125.526 69.5229 125.305 69.7447 125.033 69.7447C124.76 69.7447 124.54 69.5229 124.54 69.2493C124.54 68.9756 124.756 68.7539 125.033 68.7539Z"
            fill="#4F4F4F" />
        <path
            d="M127.193 66.8905C127.24 68.3955 128.147 69.2825 129.231 69.2825C130.016 69.2825 130.73 68.8107 131.002 67.9048L131.566 68.0794C131.232 69.1315 130.312 69.8014 129.231 69.8014C127.818 69.8014 126.62 68.6691 126.62 66.7725C126.62 64.8759 127.818 63.7437 129.231 63.7437C130.645 63.7437 131.763 64.8759 131.716 66.8905H127.193V66.8905ZM127.217 66.3715H131.143C130.993 65.0552 130.255 64.2673 129.231 64.2673C128.208 64.2673 127.357 65.0411 127.217 66.3715Z"
            fill="#4F4F4F" />
        <path
            d="M133.857 63.8616V67.3859C133.857 68.7493 134.524 69.2825 135.342 69.2825C136.023 69.2825 136.802 68.9003 137.427 68.3106V63.8616H138.005V69.6882H137.427V68.9003C136.887 69.3862 136.173 69.8014 135.342 69.8014C134.2 69.8014 133.28 69.1173 133.28 67.3859V63.8616H133.853H133.857Z"
            fill="#4F4F4F" />
        <path
            d="M1.22582 56.681L68.7816 15.0124L44.4204 0L1.20703 56.6951L42.2365 56.6857L1.22582 56.681Z"
            fill="#55C0EF" />
        <path
            d="M21.7029 48.0283H32.9418C32.5191 44.4049 30.2272 42.3621 27.4703 42.3621C24.7134 42.3621 22.2524 44.3625 21.7029 48.0283Z"
            fill="#00713D" />
        <path
            d="M17.7109 46.5139L1.22583 56.681H18.9977C17.9081 54.9165 17.2553 52.7085 17.2553 50.1137C17.2553 48.8115 17.4197 47.6085 17.7156 46.5139H17.7109Z"
            fill="#00713D" />
        <path
            d="M24.1874 56.6856C22.8582 55.6524 21.8391 53.8973 21.6183 51.3544H37.3519C37.6337 43.9095 33.914 40.1022 29.8139 39.0501C29.0108 38.8425 28.1936 38.7434 27.3857 38.7434C23.0837 38.7434 19.0399 41.5694 17.7108 46.5138C17.4149 47.6131 17.2505 48.8161 17.2505 50.1136C17.2505 52.7037 17.9174 54.9824 19.0023 56.7469L24.1827 56.6809L24.1874 56.6856ZM32.9418 48.0283H21.7029C22.2524 44.3672 24.6711 42.362 27.4703 42.362C30.2694 42.362 32.5191 44.4049 32.9418 48.0283Z"
            fill="white" />
        <path
            d="M60.1681 56.7092V39.135H55.8002V55.0249C54.1048 56.5158 51.8551 57.6245 49.906 57.6245C47.7033 57.6245 45.9186 56.261 45.9186 52.8122V39.1397H41.5508V52.8972C41.5508 54.3644 41.7527 55.6241 42.1097 56.6903"
            fill="white" />
        <path
            d="M75.6058 42.532C73.9526 42.532 72.0834 43.6407 70.6462 45.1316V56.6904H79.0015V47.1367C79.0015 43.6879 77.4751 42.5367 75.6105 42.5367L75.6058 42.532Z"
            fill="#00713D" />
        <path
            d="M88.3242 42.5318C86.671 42.5318 84.6327 43.6405 83.1956 45.1314C83.2801 45.7683 83.3224 46.2401 83.3224 47.0044V56.6855H91.7199V47.1271C91.7199 43.6783 90.1935 42.5271 88.3289 42.5271L88.3242 42.5318Z"
            fill="#00713D" />
        <path
            d="M89.5547 38.7434C87.0091 38.7434 84.21 40.1918 82.3032 41.9799C81.1149 39.6398 79.039 38.7434 76.8316 38.7434C74.4974 38.7434 72.1679 40.022 70.4302 41.7251V39.168H66.2737V56.7422H70.6415V45.1315C72.0834 43.6406 73.9479 42.5319 75.6011 42.5319C77.4657 42.5319 78.9921 43.6831 78.9921 47.1318V56.7422H83.3176V47.0092C83.3176 46.2449 83.2754 45.7731 83.1908 45.1362C84.6327 43.6453 86.6663 42.5366 88.3195 42.5366C90.184 42.5366 91.7104 43.6878 91.7104 47.1366V56.7469H96.036V47.0139C96.036 41.0505 93.11 38.7481 89.55 38.7481L89.5547 38.7434Z"
            fill="white" />
        <path
            d="M108.426 57.8274C110.713 57.8274 113.723 56.3365 115.038 54.1191V51.4771H111.732C107.068 51.4771 105.199 52.883 105.199 55.0532C105.199 56.8413 106.641 57.8226 108.421 57.8226L108.426 57.8274Z"
            fill="#00713D" />
        <path
            d="M111.774 48.1557H115.038V47.0045C115.038 43.8105 113.174 42.447 110.586 42.447C108.552 42.447 106.599 43.6406 105.965 46.1128L101.766 44.8767C102.869 40.9986 106.556 38.7435 110.713 38.7435C115.804 38.7435 119.406 41.428 119.406 47.0517V54.5485C119.406 55.3128 119.453 56.0204 119.542 56.6951H136.337L136.314 56.6668L136.281 56.6243L93.124 0L68.7816 15.0124L29.814 39.0501C33.9188 40.0975 37.6385 43.9049 37.352 51.3544H21.6184C21.8391 53.8974 22.8536 55.6524 24.1874 56.6857H42.1096C41.7527 55.6241 41.5508 54.3645 41.5508 52.8972V39.1398H45.9186V52.8123C45.9186 56.2611 47.6986 57.6245 49.906 57.6245C51.8598 57.6245 54.1047 56.5158 55.8002 55.025V39.135H60.168V56.6857H66.2736V39.1681H70.4301V41.7252C72.1678 40.022 74.502 38.7435 76.8316 38.7435C79.039 38.7435 81.1149 39.6399 82.3031 41.9799C84.2099 40.1919 87.0091 38.7435 89.5546 38.7435C93.1146 38.7435 96.0406 41.0458 96.0406 47.0092V56.6951H101.071C100.972 56.2516 100.92 55.7751 100.92 55.275C100.92 50.8449 104.227 48.1604 111.774 48.1604V48.1557Z"
            fill="#00713D" />
        <path
            d="M119.547 56.695C119.458 56.0204 119.411 55.3127 119.411 54.5484V47.0516C119.411 41.4279 115.809 38.7434 110.717 38.7434C106.561 38.7434 102.874 41.0033 101.77 44.8767L105.969 46.1128C106.603 43.6406 108.557 42.447 110.591 42.447C113.178 42.447 115.043 43.8104 115.043 47.0045V48.1556H111.779C104.231 48.1556 100.925 50.8401 100.925 55.2702C100.925 55.7751 100.977 56.2468 101.075 56.6903M111.737 51.477H115.043V54.1191C113.728 56.3318 110.717 57.8273 108.43 57.8273C106.65 57.8273 105.208 56.846 105.208 55.0579C105.208 52.8877 107.073 51.4818 111.741 51.4818L111.737 51.477Z"
            fill="white" />
        <path
            d="M55.8003 39.135V55.0249C54.1049 56.5158 51.8552 57.6245 49.9061 57.6245C47.7034 57.6245 45.9187 56.261 45.9187 52.8122V39.1397H55.8003V39.135Z"
            fill="#00723E" />
        <path
            d="M108.435 57.8132C110.722 57.8132 113.733 56.3223 115.048 54.1049V51.4629H111.741C107.078 51.4629 105.208 52.8688 105.208 55.0391C105.208 56.8272 106.65 57.8085 108.43 57.8085L108.435 57.8132Z"
            fill="#00723E" />
    </g>
    <defs>
        <clipPath id="clip0_136_750">
            <rect width="138" height="72" fill="white" />
        </clipPath>
    </defs>
</svg>